<svg width="1024" height="1024" xmlns="http://www.w3.org/2000/svg" p-id="34799" version="1.1" class="icon" t="1761373649184">

 <g>
  <title>Layer 1</title>
  <path stroke="null" id="svg_1" class="selected" data-spm-anchor-id="a313x.search_index.0.i57.2e223a81HO7ksY" p-id="34800" opacity="0.16" fill="#d81e06" d="m755.34599,510.49101c0,131.49134 -13.52906,246.12482 -37.2049,340.52885c-101.46789,-30.34417 -213.08259,-77.54618 -317.93274,-138.23448c-104.85017,-60.68832 -199.55355,-131.49134 -277.3456,-205.66594c77.79205,-74.1746 172.49542,-144.97762 277.3456,-205.66594c104.85015,-60.6883 213.08259,-107.89031 317.93274,-138.23446c23.67584,101.14717 37.2049,215.78065 37.2049,347.27197z"/>
  <path id="svg_2" data-spm-anchor-id="a313x.search_index.0.i56.2e223a81HO7ksY" p-id="34801" fill="#1296db" d="m457.14286,512c0,-31.08571 23.77143,-54.85714 54.85714,-54.85714s54.85714,23.77143 54.85714,54.85714s-23.77143,54.85714 -54.85714,54.85714s-54.85714,-23.77143 -54.85714,-54.85714zm378.51428,96.91429c18.28572,-18.28572 49.37143,-10.97143 58.51429,14.62857c14.62857,40.22857 14.62857,78.62857 -3.65714,107.88571c-23.77143,40.22857 -76.8,60.34286 -144.45715,60.34286c-23.77143,0 -49.37143,-1.82857 -78.62857,-7.31429c-36.57143,100.57143 -93.25714,166.4 -157.25714,166.4c-93.25714,0 -171.88571,-138.97143 -193.82857,-327.31428c-25.6,-18.28572 -49.37143,-38.4 -69.48572,-58.51429c-12.8,16.45714 -23.77143,31.08571 -32.91428,47.54286c-25.6,43.88571 -25.6,71.31429 -20.11429,82.28571c5.48572,9.14286 20.11429,16.45715 42.05714,20.11429c12.8,1.82857 23.77143,12.8 27.42858,25.6l0,1.82857c7.31428,25.6 -16.45715,49.37143 -42.05715,43.88571c-42.05714,-7.31428 -73.14285,-27.42857 -91.42857,-56.68571c-23.77143,-40.22857 -14.62857,-96.91429 20.11429,-155.42857c12.8,-20.11429 27.42857,-42.05714 45.71428,-64c-67.65714,-80.45714 -95.08571,-162.74286 -64,-217.6c23.77143,-40.22857 76.8,-60.34286 144.45715,-60.34286c9.14285,0 18.28571,0 29.25714,1.82857c3.65714,0 7.31428,0 10.97143,1.82857c5.48571,0 12.8,1.82858 20.11428,1.82858c3.65715,0 9.14286,1.82857 12.8,1.82857c5.48572,1.82857 10.97143,1.82857 18.28572,3.65714c5.48571,1.82857 10.97143,1.82857 16.45714,3.65714c5.48571,1.82857 10.97143,1.82857 16.45714,3.65715c5.48572,1.82857 10.97143,3.65714 18.28572,5.48571c3.65714,1.82857 9.14285,1.82857 12.8,3.65714c14.62857,5.48572 31.08571,9.14286 47.54285,16.45715c1.82857,0 1.82857,1.82857 3.65715,1.82857c7.31428,1.82857 14.62857,5.48571 21.94285,9.14285c3.65715,1.82858 7.31429,1.82858 10.97143,3.65715c29.25715,-12.8 58.51429,-23.77143 85.94286,-31.08572c-27.42857,-71.31428 -62.17143,-109.71428 -85.94286,-109.71428c-10.97143,0 -25.6,9.14285 -40.22857,27.42857c-9.14286,10.97143 -21.94286,14.62857 -34.74286,10.97143l-1.82857,0c-25.6,-7.31429 -34.74285,-38.4 -18.28571,-58.51429c25.6,-38.4 56.68571,-56.68571 91.42857,-56.68571c64,0 120.68571,65.82857 157.25714,166.4c106.05715,-18.28572 190.17143,-1.82857 223.08572,53.02857c23.77143,40.22857 14.62857,96.91429 -20.11429,155.42857c-32.91428,58.51429 -91.42857,118.85714 -166.4,175.54286c-3.65714,31.08571 -9.14286,62.17143 -16.45714,89.6c20.11429,3.65714 38.4,5.48571 56.68571,5.48571c49.37143,0 74.97143,-12.8 80.45715,-23.77143c5.48571,-9.14285 5.48571,-25.6 -3.65715,-47.54285c-1.82857,-12.8 1.82857,-27.42857 12.8,-38.4c0,1.82857 0,0 0,0zm-144.45714,-299.88572c14.62857,62.17143 21.94286,129.82857 21.94286,202.97143l0,12.8c42.05714,-36.57143 74.97143,-74.97143 95.08571,-111.54286c25.6,-43.88571 25.6,-71.31428 20.11429,-82.28571c-9.14286,-16.45714 -47.54286,-29.25714 -111.54286,-21.94286c-9.14286,-1.82857 -18.28571,0 -25.6,0zm-71.31429,16.45714c-54.85714,16.45715 -115.2,42.05715 -171.88571,74.97143c-56.68571,32.91429 -107.88571,71.31429 -149.94286,111.54286c42.05715,40.22857 93.25715,78.62857 149.94286,111.54286c56.68571,32.91428 115.2,58.51428 171.88571,74.97143c12.8,-53.02858 20.11429,-115.2 20.11429,-186.51429c0,-71.31429 -7.31429,-133.48571 -20.11429,-186.51429zm-387.65714,111.54286c5.48571,7.31429 10.97143,14.62857 16.45714,20.11429c45.71429,-42.05715 100.57143,-84.11429 164.57143,-120.68572l10.97143,-5.48571c-53.02857,-16.45714 -102.4,-27.42857 -146.28571,-27.42857c-49.37143,0 -74.97143,12.8 -80.45715,23.77143c-10.97142,18.28571 -3.65714,56.68571 34.74286,109.71428zm365.71429,330.97143c-60.34286,-18.28571 -122.51429,-45.71429 -186.51429,-80.45714l-10.97143,-5.48572c27.42857,122.51429 78.62857,195.65715 111.54286,195.65715c23.77143,0 58.51429,-40.22857 85.94286,-109.71429z"/>
 </g>
</svg>