<?xml version="1.0" standalone="no"?><!DOCTYPE svg PUBLIC "-//W3C//DTD SVG 1.1//EN" "http://www.w3.org/Graphics/SVG/1.1/DTD/svg11.dtd"><svg t="1761372268892" class="icon" viewBox="0 0 1024 1024" version="1.1" xmlns="http://www.w3.org/2000/svg" p-id="14513" xmlns:xlink="http://www.w3.org/1999/xlink" width="200" height="200"><path d="M448.042667 162.133333l9.642667 42.496c0 0-21.162667 6.016-32.768 2.005333S407.552 202.624 407.552 202.624l-15.36 22.229333c0 0-5.845333 14.122667-7.765333 22.229333C382.506667 255.104 388.266667 267.392 388.266667 267.392s27.008 2.005333 27.008-6.144-3.84-12.117333-3.84-12.117333L407.552 235.008c0 0 21.205333-15.232 67.456-11.136 46.250667 4.010667 27.946667 43.52 47.232 51.498667 19.285333 8.106667-20.650667 70.357333-24.064 52.608 10.581333 54.613333-13.909333-10.496-39.509333 48.512-9.685333 22.229333-39.594667 22.229333-39.594667 22.229333s5.845333 10.112 11.605333 22.229333-1.962667 40.362667-1.962667 48.512-34.645333-14.122667-38.528-34.389333C386.346667 415.018667 374.784 420.992 367.061333 422.997333c-7.722667 2.005333-32.768 8.106667-36.608-2.005333-3.84-10.112-27.904 20.266667-37.589333 26.24-9.642667 6.144-16.384 22.229333-0.896 14.122667 15.36-8.021333 35.626667 2.133333 31.786667 18.261333-3.882667 16.256-1.962667-10.112 0 0S316.970667 512 320.853333 526.122667c3.84 14.250667 40.405333 2.005333 52.010667-4.010667 11.562667-6.144 44.373333-12.117333 48.170667 4.010667 3.925333 16.256 74.24 14.250667 87.765333 18.261333s46.250667 16.128 61.653333 32.384c15.402667 16.128-51.072 44.501333-52.992 54.613333s-13.482667 34.389333-21.205333 50.517333c-7.722667 16.256-11.562667 22.229333-21.162667 30.378667s-15.445333 22.229333-15.445333 22.229333l-1.92 34.389333c0 0 9.642667 22.229333 15.402667 32.384 5.76 9.984-11.562667 60.629333-11.562667 60.629333-16.725333-3.370667-28.245333-8.106667-34.048-24.234667s-14.122667-12.117333-12.202667-30.378667c1.962667-18.133333-27.008-40.362667-32.768-50.517333-5.802667-10.112-13.482667-24.234667-13.482667-34.389333s-21.205333-24.234667-21.205333-24.234667-38.528-18.261333-44.288-26.368c-5.845333-8.106667-11.562667-42.368-13.525333-56.618667-1.92-14.122667 5.802667-50.517333 5.802667-50.517333s15.402667-12.117333 5.802667-22.229333-11.562667-36.394667-11.562667-36.394667L255.232 512c0 0-29.909333-21.76-31.786667-31.744-1.877333-10.112-1.877333-53.504 0-63.616s0-53.504 0-63.616C295.424 167.765333 448.042667 162.133333 448.042667 162.133333zM764.16 384.768c0 0-63.573333 0-95.402667 63.616s-95.402667 0-95.402667 0 95.402667 159.018667 159.061333 95.488c63.616-63.616 63.616-95.488 63.616-127.232C795.989333 384.768 764.16 384.768 764.16 384.768zM509.013333 960c-246.997333 0-448-201.002667-448-448 0-247.04 201.002667-448 448-448s448 200.96 448 448c0 11.776-9.557333 21.333333-21.333333 21.333333s-21.333333-9.557333-21.333333-21.333333c0-223.488-181.845333-405.333333-405.333333-405.333333s-405.333333 181.845333-405.333333 405.333333 181.845333 405.333333 405.333333 405.333333c166.485333 0 318.592-104.362667 378.368-259.712 4.266667-11.008 16.64-16.426667 27.562667-12.245333 11.008 4.224 16.469333 16.597333 12.245333 27.562667C861.141333 844.672 693.077333 960 509.013333 960z" fill="#020202" p-id="14514" data-spm-anchor-id="a313x.search_index.0.i46.2e223a81HO7ksY" class=""></path></svg>