<?xml version="1.0" standalone="no"?><!DOCTYPE svg PUBLIC "-//W3C//DTD SVG 1.1//EN" "http://www.w3.org/Graphics/SVG/1.1/DTD/svg11.dtd"><svg t="1761371928831" class="icon" viewBox="0 0 1024 1024" version="1.1" xmlns="http://www.w3.org/2000/svg" p-id="4655" xmlns:xlink="http://www.w3.org/1999/xlink" width="200" height="200"><path d="M527.533761 526.377761m-428.081563 0a428.081564 428.081564 0 1 0 856.163127 0 428.081564 428.081564 0 1 0-856.163127 0Z" fill="transparent" p-id="4656" data-spm-anchor-id="a313x.search_index.0.i15.2e223a81HO7ksY" class=""></path><path d="M527.533761 533.349891m-85.507937 0a85.507938 85.507938 0 1 0 171.015875 0 85.507938 85.507938 0 1 0-171.015875 0Z" fill="#ffffff" p-id="4657" data-spm-anchor-id="a313x.search_index.0.i16.2e223a81HO7ksY" class="selected"></path><path d="M527.425386 633.307839a99.957948 99.957948 0 1 1 99.957949-99.957948A100.066323 100.066323 0 0 1 527.425386 633.307839z m0-170.9075a71.057927 71.057927 0 1 0 71.057927 71.057927A71.130177 71.130177 0 0 0 527.425386 462.400339z" fill="#404951" p-id="4658"></path><path d="M527.425386 739.948917a206.599026 206.599026 0 1 1 206.635152-206.599026 206.815776 206.815776 0 0 1-206.635152 206.599026z m0-384.298032a177.699005 177.699005 0 1 0 177.73513 177.699006A177.87963 177.87963 0 0 0 527.425386 355.650885z" fill="#404951" p-id="4659" data-spm-anchor-id="a313x.search_index.0.i18.2e223a81HO7ksY" class=""></path><path d="M527.425386 850.455373a324.077612 324.077612 0 1 1 324.077613-324.077612A324.402738 324.402738 0 0 1 527.425386 850.455373zM527.425386 231.200169a295.177591 295.177591 0 1 0 295.177591 295.141467A295.466591 295.466591 0 0 0 527.425386 231.200169z" fill="#404951" p-id="4660"></path><path d="M641.327595 679.547873m-42.157906 0a42.157906 42.157906 0 1 0 84.315812 0 42.157906 42.157906 0 1 0-84.315812 0Z" fill="#FFFFFF" p-id="4661"></path><path d="M641.327595 736.119664a56.607916 56.607916 0 1 1 56.607916-56.571791 56.644041 56.644041 0 0 1-56.607916 56.571791z m0-84.279687a27.707895 27.707895 0 1 0 27.707895 27.707896 27.74402 27.74402 0 0 0-27.707895-27.707896z" fill="#404951" p-id="4662"></path><path d="M353.302759 280.36633m-58.522543 0a58.522543 58.522543 0 1 0 117.045086 0 58.522543 58.522543 0 1 0-117.045086 0Z" fill="#FFFFFF" p-id="4663"></path><path d="M353.302759 353.302759A72.972553 72.972553 0 1 1 426.275312 280.36633 73.044803 73.044803 0 0 1 353.302759 353.302759z m0-117.008961a44.072532 44.072532 0 1 0 44.072532 44.072532 44.108657 44.108657 0 0 0-44.072532-44.072532z" fill="#404951" p-id="4664"></path></svg>