<svg width="2048" height="2048" xmlns="http://www.w3.org/2000/svg" p-id="7472" version="1.1" class="icon" t="1762611622036">

 <g>
  <title>Layer 1</title>
  <path stroke-width="0" stroke="null" id="svg_1" p-id="7473" fill="#0051a3" d="m712,1224a512,512 0 1 1 512,-512a512,512 0 0 1 -512,512zm0,-930.90909a418.90909,418.90909 0 1 0 418.90909,418.90909a418.90909,418.90909 0 0 0 -418.90909,-418.90909z"/>
  <path stroke-width="0" stroke="null" id="svg_2" p-id="7474" fill="#0051a3" d="m451.7395,1071.03513c-78.42909,-2.09455 -114.73454,-33.51273 -131.72363,-59.81091a34.90909,34.90909 0 1 1 58.41454,-37.93454c14.19636,21.87636 48.17455,27.22909 74.24,27.92727a34.90909,34.90909 0 0 1 0,69.81818l-0.93091,0zm114.96728,-15.59273a34.90909,34.90909 0 0 1 -8.84364,-69.81818a735.41818,735.41818 0 0 0 104.49454,-37.00364a34.90909,34.90909 0 1 1 27.92728,65.6291a810.12364,810.12364 0 0 1 -114.73455,40.49454a40.26182,40.26182 0 0 1 -8.84363,0.69818zm213.4109,-91.22909a34.90909,34.90909 0 0 1 -17.45454,-65.16363c16.05818,-9.3091 32.11636,-19.08364 48.17454,-29.55637s31.41819,-20.94545 46.54546,-31.88364a34.90909,34.90909 0 1 1 40.96,56.55273c-15.82546,11.40364 -32.34909,23.27273 -49.33818,33.97818s-34.21091,21.41091 -51.2,31.41818a36.30546,36.30546 0 0 1 -17.68728,4.65455zm188.04364,-136.14545a34.67636,34.67636 0 0 1 -23.27273,-60.50909a734.48727,734.48727 0 0 0 76.10182,-80.75637a34.90909,34.90909 0 1 1 54.45818,43.75273a791.27273,791.27273 0 0 1 -84.01454,87.73818a35.14182,35.14182 0 0 1 -23.27273,9.77455zm141.03273,-182.92364a35.14182,35.14182 0 0 1 -32.58182,-49.80364a139.63636,139.63636 0 0 0 12.10182,-51.2a48.87273,48.87273 0 0 0 -7.44727,-28.16a34.90909,34.90909 0 0 1 58.64727,-37.00363a120.08727,120.08727 0 0 1 18.61818,66.32727a204.10182,204.10182 0 0 1 -17.45455,77.96364a34.44364,34.44364 0 0 1 -32.11636,21.17818l0.23273,0.69818z"/>
  <rect stroke-width="0" id="svg_3" height="143" width="758" y="1495" x="1044" stroke="#a50da5" fill="#a50da5"/>
  <rect transform="rotate(90 1423 1566.5)" stroke-width="0" id="svg_4" height="143" width="758" y="1495" x="1044" stroke="#a50da5" fill="#a50da5"/>
 </g>
</svg>