<svg t="1780136975312" class="icon" viewBox="0 0 1024 1024" version="1.1" xmlns="http://www.w3.org/2000/svg" p-id="5749" width="48" height="48"><path d="M256 384a42.666667 42.666667 0 0 1 42.666667 42.666667v170.666666a42.666667 42.666667 0 1 1-85.333334 0v-170.666666a42.666667 42.666667 0 0 1 42.666667-42.666667z m170.666667-170.666667a42.666667 42.666667 0 0 1 42.666666 42.666667v512a42.666667 42.666667 0 1 1-85.333333 0V256a42.666667 42.666667 0 0 1 42.666667-42.666667z m170.666666 106.666667a42.666667 42.666667 0 0 1 42.666667 42.666667v298.666666a42.666667 42.666667 0 1 1-85.333333 0V362.666667a42.666667 42.666667 0 0 1 42.666666-42.666667z m170.666667 64a42.666667 42.666667 0 0 1 42.666667 42.666667v192a42.666667 42.666667 0 1 1-85.333334 0v-192a42.666667 42.666667 0 0 1 42.666667-42.666667z" fill="#2A2A37" p-id="5750"></path></svg>