<svg t="1780139001908" class="icon" viewBox="0 0 1024 1024" version="1.1" xmlns="http://www.w3.org/2000/svg" p-id="7678" width="48" height="48"><path d="M512 85.333a425.813 425.813 0 0 1 330.368 156.63L572.331 512l270.037 270.037A425.813 425.813 0 0 1 512 938.667C276.352 938.667 85.333 747.648 85.333 512S276.352 85.333 512 85.333z m0 85.334a341.333 341.333 0 1 0 200.405 617.685l8.875-6.699L451.627 512 721.28 242.304l-8.875-6.656a339.797 339.797 0 0 0-187.477-64.725L512 170.667z m0 42.666a64 64 0 1 1 0 128 64 64 0 0 1 0-128z" fill="#333333" p-id="7679"></path></svg>